<svg xmlns="http://www.w3.org/2000/svg" xmlns:xlink="http://www.w3.org/1999/xlink" viewBox="0 0 71.22 123.31"><defs><style>.cls-1{isolation:isolate;}.cls-2{fill:#b6d433;}.cls-2,.cls-3,.cls-4{mix-blend-mode:multiply;}.cls-3{fill:#61cae3;}.cls-4{fill:#ee243b;}.cls-5{fill:url(#linear-gradient);}.cls-6{fill:url(#linear-gradient-2);}.cls-7{fill:url(#linear-gradient-3);}.cls-8{fill:url(#linear-gradient-4);}</style><linearGradient id="linear-gradient" x1="43.37" y1="123.31" x2="43.37" gradientUnits="userSpaceOnUse"><stop offset="0" stop-color="#0d0d0d"/><stop offset="0.5" stop-color="#141414"/><stop offset="1" stop-color="#0d0d0d"/></linearGradient><linearGradient id="linear-gradient-2" x1="43.55" y1="123.31" x2="43.55" xlink:href="#linear-gradient"/><linearGradient id="linear-gradient-3" x1="42.11" y1="123.31" x2="42.11" xlink:href="#linear-gradient"/><linearGradient id="linear-gradient-4" x1="43.37" y1="123.31" x2="43.37" xlink:href="#linear-gradient"/></defs><title>Cassette Left Arch</title><g class="cls-1"><g id="Cassette"><path class="cls-2" d="M19,65.09V58.22A58.94,58.94,0,0,1,21.53,41.1H0V82.2H21.53A58.82,58.82,0,0,1,19,65.09Z"/><path class="cls-3" d="M21.53,82.2H6v1.08H21.88C21.76,82.92,21.64,82.57,21.53,82.2Z"/><path class="cls-2" d="M21.53,82.2,0,82.15v1.08l21.88,0C21.76,82.92,21.64,82.57,21.53,82.2Z"/><path class="cls-4" d="M71.22,0H0V41.1H15.53A58.05,58.05,0,0,1,71.22,0Z"/><path class="cls-3" d="M15.88,83.28H0v40H71.22A58,58,0,0,1,15.88,83.28Z"/><path class="cls-4" d="M15.53,41.1H71.22V0A58.05,58.05,0,0,0,15.53,41.1Z"/><path class="cls-5" d="M15.53,41.1H71.22V0A58.05,58.05,0,0,0,15.53,41.1Z"/><path class="cls-3" d="M27.65,83.28H15.88a58,58,0,0,0,55.34,40v-40Z"/><path class="cls-6" d="M27.65,83.28H15.88a58,58,0,0,0,55.34,40v-40Z"/><path class="cls-2" d="M71.22,82.2V41.1H15.53A58.94,58.94,0,0,0,13,58.22v6.87A58.82,58.82,0,0,0,15.53,82.2H71.22Z"/><path class="cls-7" d="M71.22,82.2V41.1H15.53A58.94,58.94,0,0,0,13,58.22v6.87A58.82,58.82,0,0,0,15.53,82.2H71.22Z"/><path class="cls-3" d="M27.65,82.2H15.53c.11.37.23.72.35,1.08H71.22V82.2Z"/><path class="cls-2" d="M27.65,82.2H15.53c.11.37.23.72.35,1.08H71.22V82.2Z"/><path class="cls-8" d="M27.65,82.2H15.53c.11.37.23.72.35,1.08H71.22V82.2Z"/></g></g></svg>