<svg xmlns="http://www.w3.org/2000/svg" xmlns:xlink="http://www.w3.org/1999/xlink" viewBox="0 0 70.83 123.31"><defs><style>.cls-1{isolation:isolate;}.cls-2{fill:#ee243b;}.cls-2,.cls-3,.cls-4{mix-blend-mode:multiply;}.cls-3{fill:#61cae3;}.cls-4{fill:#b6d433;}.cls-5{fill:url(#linear-gradient);}</style><linearGradient id="linear-gradient" x1="28.77" y1="123.31" x2="28.77" gradientUnits="userSpaceOnUse"><stop offset="0" stop-color="#0d0d0d"/><stop offset="0.5" stop-color="#141414"/><stop offset="1" stop-color="#0d0d0d"/></linearGradient></defs><title>Cassette Right Arch</title><g class="cls-1"><g id="Cassette"><polygon class="cls-2" points="0 0 -0.38 0 -0.38 41.1 43.17 41.1 70.83 41.1 70.83 0 0 0"/><polygon class="cls-3" points="-0.38 83.28 -0.38 123.31 0 123.31 70.83 123.31 70.83 83.28 43.17 83.28 -0.38 83.28"/><polygon class="cls-4" points="-0.38 41.1 -0.38 82.2 43.17 82.2 70.83 82.2 70.83 41.1 43.17 41.1 -0.38 41.1"/><polygon class="cls-3" points="-0.38 82.2 -0.38 83.28 43.17 83.28 70.83 83.28 70.83 82.2 43.17 82.2 -0.38 82.2"/><polygon class="cls-4" points="-0.38 82.2 -0.38 83.28 43.17 83.28 70.83 83.28 70.83 82.2 43.17 82.2 -0.38 82.2"/><path class="cls-5" d="M57.92,65.09V58.22A58.06,58.06,0,0,0-.3,0H-.38V123.31H-.3A58.06,58.06,0,0,0,57.92,65.09Z"/></g></g></svg>