<svg xmlns="http://www.w3.org/2000/svg" xmlns:xlink="http://www.w3.org/1999/xlink" viewBox="0 0 334.26 123.31"><defs><style>.cls-1,.cls-7{isolation:isolate;}.cls-2{fill:url(#linear-gradient);}.cls-3{fill:url(#linear-gradient-2);}.cls-4{fill:url(#linear-gradient-3);}.cls-5{fill:#050505;}.cls-6{fill:#5c4d52;}.cls-7{font-size:20.38px;fill:#4a4a4a;font-family:Helvetica;}.cls-8,.cls-9{fill:none;stroke:#4a4a4a;}.cls-8{stroke-width:2.09px;}.cls-9{stroke-width:0.73px;}.cls-10{fill:#231f20;}.cls-11{fill:#61cae3;}.cls-11,.cls-12{mix-blend-mode:multiply;}.cls-12{fill:#b6d433;}</style><linearGradient id="linear-gradient" x1="388.47" y1="59.3" x2="511.78" y2="59.3" gradientTransform="translate(226.43 -388.47) rotate(90)" gradientUnits="userSpaceOnUse"><stop offset="0" stop-color="#0d0d0d"/><stop offset="0.5" stop-color="#141414"/><stop offset="1" stop-color="#0d0d0d"/></linearGradient><linearGradient id="linear-gradient-2" x1="388.47" y1="59.3" x2="511.78" y2="59.3" xlink:href="#linear-gradient"/><linearGradient id="linear-gradient-3" x1="388.47" y1="59.3" x2="511.78" y2="59.3" xlink:href="#linear-gradient"/></defs><title>Cassette Center</title><g class="cls-1"><g id="Cassette"><rect class="cls-2" width="334.26" height="41.1"/><rect class="cls-3" y="83.28" width="334.26" height="40.03"/><rect class="cls-4" y="41.1" width="334.26" height="41.1"/><path class="cls-5" d="M195.79,63.61c0,2.74,0,5.47-.15,8.18h4.94c.1-2.71.14-5.44.14-8.18A187.65,187.65,0,0,0,194.8,16.9h-4.93A187.65,187.65,0,0,1,195.79,63.61Z"/><path class="cls-6" d="M189.87,16.9H84.77V71.79H195.64c.11-2.71.15-5.44.15-8.18A187.65,187.65,0,0,0,189.87,16.9Z"/><g id="Cassette_Window_Markers" data-name="Cassette Window Markers"><g id="Numerals"><g id="_100" data-name="100" class="cls-1"><text class="cls-7" transform="translate(65.55 111.46)">100</text></g><g id="_50" data-name="50" class="cls-1"><text class="cls-7" transform="translate(152.14 111.07)">50</text></g><g id="_0" data-name="0" class="cls-1"><text class="cls-7" transform="translate(236.37 111.46)">0</text></g></g><g id="Markers"><path id="path2884" class="cls-8" d="M82.55,74.76v16"/><path id="path2889" class="cls-8" d="M241.87,74.76v16"/><path id="path2891" class="cls-8" d="M163.47,74.76v16"/><path id="path2894" class="cls-9" d="M99,76v8.42"/><g id="use2896"><path id="path2894-2" data-name="path2894" class="cls-9" d="M114.84,76v8.42"/></g><g id="use2898"><path id="path2894-3" data-name="path2894" class="cls-9" d="M130.65,76v8.42"/></g><g id="use2900"><path id="path2894-4" data-name="path2894" class="cls-9" d="M147.69,76v8.42"/></g><g id="use2902"><path id="path2894-5" data-name="path2894" class="cls-9" d="M179.1,76v8.42"/></g><g id="use2904"><path id="path2894-6" data-name="path2894" class="cls-9" d="M194.5,76v8.42"/></g><g id="use2906"><path id="path2894-7" data-name="path2894" class="cls-9" d="M210.11,76v8.42"/></g><g id="layer1"><g id="g3040"><g id="g2417"><g id="g2396"><g id="g2910"><g id="use2908"><path id="path2894-8" data-name="path2894" class="cls-9" d="M225.91,76v8.42"/></g></g></g></g></g></g></g></g><path class="cls-10" d="M238.27,21.9V66.79H89.77V21.9h148.5m5-5H84.77V71.79h158.5V16.9Z"/><rect class="cls-11" y="82.2" width="334.26" height="1.07"/><rect class="cls-12" y="82.2" width="334.26" height="1.07"/><rect class="cls-3" y="82.2" width="334.26" height="1.07"/></g></g></svg>